<?xml version="1.0" standalone="no"?><!DOCTYPE svg PUBLIC "-//W3C//DTD SVG 1.1//EN" "http://www.w3.org/Graphics/SVG/1.1/DTD/svg11.dtd"><svg t="1636986760900" class="icon" viewBox="0 0 1024 1024" version="1.1" xmlns="http://www.w3.org/2000/svg" p-id="1409" width="32" height="32" xmlns:xlink="http://www.w3.org/1999/xlink"><defs><style type="text/css"></style></defs><path d="M508.490752 960c-105.165824 0-191.93344-32.425984-259.422208-98.156544-67.480576-65.73056-101.665792-148.998144-101.665792-249.78432 0-41.193472 11.398144-91.147264 22.787072-125.331456 6.13888-16.657408 12.268544-34.184192 19.28704-50.832384 14.898176-35.055616 21.02784-44.70272 25.416704-51.712 6.129664-11.388928 14.898176-15.777792 27.16672-14.01856 11.388928 0.8704 21.037056 9.638912 23.666688 20.15744 11.388928 42.943488 24.537088 76.249088 40.313856 101.665792 14.898176 23.666688 31.546368 42.064896 49.082368 53.462016-16.657408-71.86944-19.28704-141.109248-6.13888-208.589824 14.898176-80.637952 56.091648-152.498176 92.02688-188.432384 18.407424-18.407424 37.685248-35.063808 58.72128-49.082368 42.943488-28.046336 56.962048-30.675968 68.360192-34.184192 9.638912-2.629632 19.277824-0.8704 27.16672 6.13888 7.888896 7.00928 10.518528 15.777792 7.888896 26.29632-0.8704 9.638912-3.500032 17.527808-6.129664 63.100928a818.96448 818.96448 0 0 0 0 65.73056c3.500032 42.943488 15.768576 106.04544 37.685248 155.127808 6.129664 10.518528 12.268544 24.546304 21.907456 39.443456 2.629632-21.916672 6.13888-41.193472 11.398144-58.72128 13.14816-46.452736 37.685248-79.758336 74.499072-100.794368l7.00928-3.500032c18.407424-9.648128 43.823104 7.888896 38.56384 30.675968 0 1.750016-9.638912 54.332416 36.805632 128.831488 20.15744 33.3056 33.3056 63.980544 40.31488 91.147264 7.888896 27.174912 11.398144 61.350912 11.398144 103.424-0.003072 201.578496-154.251264 347.937792-368.109568 347.937792zM235.049984 473.580544c-21.037056 52.5824-31.55456 98.16576-31.55456 137.6 0 85.0176 28.925952 155.127808 85.888 210.349056 56.971264 55.212032 130.59072 82.378752 219.108352 82.378752 90.276864 0 164.775936-27.16672 223.497216-82.378752 58.72128-55.221248 88.517632-125.331456 88.517632-210.349056 0-74.499072-8.768512-105.174016-43.823104-164.76672-20.15744-34.184192-34.176-67.489792-40.313856-101.665792-6.13888 9.638912-11.398144 21.02784-14.898176 33.3056-4.379648 17.527808-7.888896 37.685248-10.518528 60.471296-4.379648 44.693504-2.629632 61.350912-1.750016 69.239808 0 13.14816-6.13888 24.537088-19.28704 28.916736-12.268544 2.629632-23.657472 0-31.546368-10.518528-35.063808-49.952768-59.600896-90.267648-74.499072-120.943616-34.184192-74.499072-48.202752-163.89632-40.313856-267.311104-27.174912 16.648192-49.961984 35.934208-78.00832 68.360192-28.046336 32.425984-50.832384 84.137984-61.350912 141.109248-7.888896 44.693504-7.00928 98.156544-2.629632 135.840768 4.388864 35.935232 14.898176 75.378688 18.407424 89.397248 4.379648 14.027776 7.00928 15.777792 7.00928 21.916672 0 7.00928-1.750016 13.14816-7.00928 21.02784-7.888896 7.888896-16.648192 11.398144-27.16672 8.768512-5.259264-0.879616-81.508352-21.037056-134.099968-102.545408-7.88992-13.147136-16.649216-30.674944-23.658496-48.202752z" fill="#d81e06" p-id="1410"></path></svg>